<?xml version="1.0" encoding="iso-8859-1"?>
<!-- Generator: Adobe Illustrator 19.0.0, SVG Export Plug-In . SVG Version: 6.00 Build 0)  -->
<svg version="1.1" id="Capa_1" xmlns="http://www.w3.org/2000/svg" xmlns:xlink="http://www.w3.org/1999/xlink" x="0px" y="0px"
	 viewBox="0 0 512.198 512.198" style="enable-background:new 0 0 512.198 512.198;" xml:space="preserve">
<g transform="translate(0 -1)">
	<g transform="translate(1 2)">
		<path style="fill:#E7EBF4;" d="M502.567,33.231v443.733c0.009,6.792-2.685,13.309-7.488,18.112s-11.32,7.497-18.112,7.488H33.234
			c-6.792,0.009-13.309-2.685-18.112-7.488s-7.497-11.32-7.488-18.112v-358.4c-0.009-6.792,2.685-13.309,7.488-18.112
			s11.32-7.497,18.112-7.488h179.883c10.358-0.003,20.153-4.713,26.624-12.8l47.787-59.733c6.471-8.087,16.266-12.797,26.624-12.8
			h162.816c6.792-0.009,13.309,2.685,18.112,7.488S502.576,26.438,502.567,33.231z"/>
		<path style="fill:#F0F7FF;" d="M476.967,33.231v443.733c0.009,6.792-2.685,13.309-7.488,18.112
			c-4.803,4.803-11.32,7.497-18.112,7.488H33.234c-6.792,0.009-13.309-2.685-18.112-7.488s-7.497-11.32-7.488-18.112v-358.4
			c-0.009-6.792,2.685-13.309,7.488-18.112s11.32-7.497,18.112-7.488h179.883c10.358-0.003,20.153-4.713,26.624-12.8l47.787-59.733
			c6.471-8.087,16.266-12.797,26.624-12.8h137.216c6.792-0.009,13.309,2.685,18.112,7.488
			C474.282,19.922,476.976,26.438,476.967,33.231z"/>
		<path style="fill:#B2CDF8;" d="M502.567,33.231l0,119.467h-25.6V33.231c0.009-6.792-2.685-13.309-7.488-18.112
			c-4.803-4.803-11.32-7.497-18.112-7.488l25.6,0c6.792-0.009,13.309,2.685,18.112,7.488
			C499.882,19.922,502.576,26.438,502.567,33.231z"/>
		<path style="fill:#E7EBF4;" d="M476.967,33.231v119.467H33.234c-6.792-0.009-13.309,2.685-18.112,7.488s-7.497,11.32-7.488,18.112
			l0-59.733c-0.009-6.792,2.685-13.309,7.488-18.112c4.803-4.803,11.32-7.497,18.112-7.488h179.883
			c10.358-0.003,20.153-4.713,26.624-12.8l47.787-59.733c6.471-8.087,16.266-12.797,26.624-12.8h137.216
			c6.792-0.009,13.309,2.685,18.112,7.488C474.282,19.922,476.976,26.438,476.967,33.231z"/>
	</g>
	<path style="fill:#FFFFFF;" d="M34.234,504.564h25.6c-6.792,0.009-13.309-2.685-18.112-7.488s-7.497-11.32-7.488-18.112v-358.4
		c-0.009-6.792,2.685-13.309,7.488-18.112c4.803-4.803,11.32-7.497,18.112-7.488l-25.6,0c-6.792-0.009-13.309,2.685-18.112,7.488
		c-4.803,4.803-7.497,11.32-7.488,18.112v358.4c-0.009,6.792,2.685,13.309,7.488,18.112S27.442,504.573,34.234,504.564z"/>
	<g>
		<path style="fill:#FFFFFF;" d="M17.167,478.964c0.043,6.31,3.527,12.093,9.086,15.079c2.889,1.497,6.13,2.184,9.378,1.987h440.496
			c1.254,0.017,2.292-0.012,2.93-0.065c3.09-0.182,6.071-1.212,8.615-2.976c2.548-1.773,4.569-4.203,5.846-7.033
			c0.933-2.119,1.441-4.4,1.496-6.714l0.02-3.332V35.372c-0.078-0.863-0.021-1.583-0.168-2.361
			c-0.818-6.26-5.033-11.553-10.951-13.753c-3.454-1.094-7.095-1.467-10.699-1.095H320.589l-6.557,0.035
			c-1.733,0.081-3.454,0.335-5.136,0.759c-3.377,0.844-6.543,2.377-9.299,4.503c-1.375,1.058-2.64,2.252-3.777,3.563l-4.153,5.142
			l-8.668,10.835L248.328,86.34c-6.975,9.257-17.383,15.316-28.877,16.811c-6.285,0.635-10.113,0.227-14.934,0.347H34.545
			c-0.977,0.054-1.611,0.037-2.419,0.15c-1.525,0.197-3.02,0.587-4.447,1.159c-5.808,2.463-9.808,7.902-10.428,14.18
			c-0.102,1.212-0.085,3.919-0.083,6.159L17.167,478.964H0.101V125.146c0.023-2.384-0.079-4.306,0.154-7.71
			c1.202-12.577,9.214-23.479,20.858-28.383c2.862-1.17,5.865-1.959,8.933-2.345c1.48-0.206,3.17-0.229,4.499-0.277h169.972
			c4.419-0.066,9.873,0.165,12.793-0.212c7.103-0.911,13.509-4.728,17.692-10.54l34.671-43.339l8.668-10.835l4.572-5.645
			c1.894-2.186,4.004-4.176,6.297-5.939c4.598-3.538,9.874-6.093,15.5-7.507c2.805-0.709,5.674-1.133,8.564-1.265
			c3.07-0.103,4.835-0.029,7.317-0.051h152.628c5.641-0.38,11.301,0.357,16.657,2.169c11.846,4.415,20.28,15.017,21.918,27.553
			c0.187,1.511,0.29,3.031,0.309,4.553v440.539l-0.022,3.605c-0.092,4.639-1.112,9.213-3.001,13.452
			c-5.18,11.535-16.327,19.248-28.947,20.03c-1.671,0.104-2.944,0.111-4.004,0.099H35.632c-6.038,0.177-12.021-1.193-17.381-3.979
			c-11.128-5.956-18.096-17.532-18.15-30.154H17.167z"/>
		<g>
			<path style="fill:#51A1FF;" d="M0.101,125.146v353.818c0.063,15.74,10.838,29.415,26.127,33.158
				c2.747,0.731,5.677,0.166,7.955-1.533c1.613-1.59,2.519-3.76,2.516-6.025c-0.005-2.26-0.902-4.427-2.497-6.029
				c-0.943-1.428-2.347-2.489-3.978-3.006c-7.633-1.879-13.013-8.705-13.056-16.566V180.297c0.011-9.421,7.645-17.056,17.067-17.067
				h460.8v312.68l-0.02,3.331c-0.055,2.314-0.563,4.595-1.496,6.714c-1.277,2.829-3.298,5.26-5.846,7.033
				c-2.544,1.765-5.524,2.794-8.615,2.976c-0.638,0.054-1.677,0.083-2.93,0.066H96.432c-4.713,0-8.533,3.821-8.533,8.533
				c0,4.713,3.82,8.533,8.533,8.533h379.696c1.06,0.012,2.333,0.005,4.004-0.099c12.62-0.782,23.767-8.495,28.947-20.03
				c1.888-4.239,2.908-8.813,3.001-13.452l0.022-3.605V35.372c-0.019-1.522-0.123-3.043-0.309-4.554
				c-1.638-12.535-10.072-23.138-21.918-27.553c-5.355-1.812-11.016-2.549-16.657-2.169H320.589
				c-2.481,0.023-4.246-0.051-7.317,0.051c-2.89,0.132-5.759,0.556-8.564,1.265c-5.627,1.413-10.902,3.969-15.5,7.507
				c-2.293,1.763-4.403,3.753-6.297,5.939l-4.572,5.645l-8.668,10.836l-34.671,43.339c-4.182,5.813-10.589,9.63-17.692,10.54
				c-2.92,0.377-8.373,0.145-12.793,0.212H34.545c-1.33,0.047-3.019,0.07-4.499,0.277c-3.068,0.387-6.071,1.175-8.933,2.345
				C9.469,93.957,1.457,104.858,0.255,117.435C0.021,120.84,0.124,122.761,0.101,125.146z M17.251,118.986
				c0.62-6.278,4.62-11.717,10.428-14.18c1.428-0.573,2.922-0.962,4.447-1.159c0.808-0.112,1.443-0.095,2.419-0.15h169.972
				c4.821-0.119,8.65,0.289,14.934-0.347c11.494-1.495,21.902-7.554,28.877-16.811l34.671-43.339l8.668-10.835l4.153-5.142
				c1.137-1.311,2.402-2.504,3.777-3.562c2.756-2.126,5.923-3.659,9.3-4.503c1.682-0.424,3.403-0.679,5.136-0.759l6.556-0.035
				h152.628c3.603-0.372,7.245,0.001,10.698,1.095c5.918,2.199,10.133,7.492,10.951,13.753c0.147,0.778,0.091,1.497,0.168,2.361
				v110.792h-460.8c-6.01,0.034-11.902,1.673-17.069,4.747l0.002-25.766C17.166,122.905,17.148,120.198,17.251,118.986z"/>
			<path style="fill:#51A1FF;" d="M56.24,498.505l-1.025,1.279c-0.324,0.476-0.583,0.993-0.771,1.538
				c-0.246,0.484-0.417,1.002-0.508,1.537c-0.096,0.563-0.153,1.133-0.171,1.704c0.031,2.259,0.915,4.423,2.475,6.059
				c1.994,2.07,4.908,2.979,7.726,2.409c2.818-0.57,5.149-2.539,6.183-5.221c0.438-1.027,0.67-2.13,0.684-3.246
				c-0.014-3.45-2.096-6.556-5.282-7.879C62.363,495.362,58.693,496.079,56.24,498.505L56.24,498.505z"/>
			<path style="fill:#51A1FF;" d="M111.034,188.831H93.967c-9.421,0.011-17.056,7.645-17.067,17.067v17.067
				c0.011,9.421,7.645,17.056,17.067,17.067h17.067c9.421-0.011,17.056-7.645,17.067-17.067v-17.067
				C128.09,196.476,120.455,188.841,111.034,188.831z M93.967,222.964v-17.067h17.067l0.009,17.067H93.967z"/>
			<path style="fill:#51A1FF;" d="M128.101,342.431c-9.421,0.011-17.056,7.645-17.067,17.067v17.067
				c0.011,9.421,7.645,17.056,17.067,17.067h17.067c9.421-0.011,17.056-7.645,17.067-17.067v-17.067
				c-0.011-9.421-7.645-17.056-17.067-17.067H128.101z M128.101,376.564v-17.067h17.067l0.009,17.067H128.101z"/>
			<path style="fill:#51A1FF;" d="M42.767,453.364c0.011,9.421,7.645,17.056,17.067,17.067h17.067
				c9.421-0.011,17.056-7.645,17.067-17.067v-17.067c-0.011-9.421-7.645-17.056-17.067-17.067H59.834
				c-9.421,0.011-17.056,7.645-17.067,17.067V453.364z M59.834,436.297h17.067l0.009,17.067H59.834V436.297z"/>
			<path style="fill:#51A1FF;" d="M59.834,231.497v-34.133c0-4.713-3.821-8.533-8.533-8.533s-8.533,3.821-8.533,8.533v34.133
				c0,4.713,3.821,8.533,8.533,8.533S59.834,236.21,59.834,231.497z"/>
			<path style="fill:#51A1FF;" d="M162.234,231.497v-34.133c0-4.713-3.821-8.533-8.533-8.533c-4.713,0-8.533,3.821-8.533,8.533
				v34.133c0,4.713,3.821,8.533,8.533,8.533C158.413,240.031,162.234,236.21,162.234,231.497z"/>
			<path style="fill:#51A1FF;" d="M187.834,188.831c-2.263-0.001-4.434,0.898-6.035,2.499c-1.6,1.6-2.499,3.771-2.499,6.035v34.133
				c0,4.713,3.821,8.533,8.533,8.533c4.713,0,8.533-3.821,8.533-8.533v-34.133c0.001-2.263-0.898-4.434-2.499-6.035
				C192.268,189.729,190.097,188.83,187.834,188.831z"/>
			<path style="fill:#51A1FF;" d="M42.767,385.097c0,4.713,3.821,8.533,8.533,8.533s8.533-3.821,8.533-8.533v-34.133
				c0-4.713-3.821-8.533-8.533-8.533s-8.533,3.821-8.533,8.533V385.097z"/>
			<path style="fill:#51A1FF;" d="M76.901,350.964v34.133c0,4.713,3.82,8.533,8.533,8.533c4.713,0,8.533-3.821,8.533-8.533v-34.133
				c0-4.713-3.821-8.533-8.533-8.533C80.721,342.431,76.901,346.251,76.901,350.964z"/>
			<path style="fill:#51A1FF;" d="M111.034,427.764v34.133c0,4.713,3.821,8.533,8.533,8.533c4.713,0,8.533-3.82,8.533-8.533v-34.133
				c0-4.713-3.821-8.533-8.533-8.533C114.854,419.231,111.034,423.051,111.034,427.764z"/>
			<path style="fill:#51A1FF;" d="M145.167,427.764v34.133c0,4.713,3.821,8.533,8.533,8.533c4.713,0,8.533-3.82,8.533-8.533v-34.133
				c0-4.713-3.821-8.533-8.533-8.533C148.988,419.231,145.167,423.051,145.167,427.764z"/>
			<path style="fill:#51A1FF;" d="M264.634,350.964c0-4.713-3.821-8.533-8.533-8.533c-4.713,0-8.533,3.821-8.533,8.533v34.133
				c0,4.713,3.82,8.533,8.533,8.533c4.713,0,8.533-3.821,8.533-8.533V350.964z"/>
			<path style="fill:#51A1FF;" d="M315.834,188.831h-17.067c-9.421,0.011-17.056,7.645-17.067,17.067v17.067
				c0.011,9.421,7.645,17.056,17.067,17.067h17.067c9.421-0.011,17.056-7.645,17.067-17.067v-17.067
				C332.89,196.476,325.255,188.841,315.834,188.831z M298.767,222.964v-17.067h17.067l0.009,17.067H298.767z"/>
			<path style="fill:#51A1FF;" d="M418.234,188.831h-17.067c-9.421,0.011-17.056,7.645-17.067,17.067v17.067
				c0.011,9.421,7.645,17.056,17.067,17.067h17.067c9.421-0.011,17.056-7.645,17.067-17.067v-17.067
				C435.29,196.476,427.655,188.841,418.234,188.831z M401.167,222.964v-17.067h17.067l0.009,17.067H401.167z"/>
			<path style="fill:#51A1FF;" d="M264.634,205.897c-0.011-9.421-7.645-17.056-17.067-17.067h-17.067
				c-9.421,0.011-17.056,7.645-17.067,17.067v17.067c0.011,9.421,7.645,17.056,17.067,17.067h17.067
				c9.421-0.011,17.056-7.645,17.067-17.067V205.897z M230.501,222.964v-17.067h17.067l0.009,17.067H230.501z"/>
			<path style="fill:#51A1FF;" d="M196.367,342.431c-9.421,0.011-17.056,7.645-17.067,17.067v17.067
				c0.011,9.421,7.645,17.056,17.067,17.067h17.067c9.421-0.011,17.056-7.645,17.067-17.067v-17.067
				c-0.011-9.421-7.645-17.056-17.067-17.067H196.367z M196.367,376.564v-17.067h17.067l0.009,17.067H196.367z"/>
			<path style="fill:#51A1FF;" d="M213.434,419.231h-17.067c-9.421,0.011-17.056,7.645-17.067,17.067v17.067
				c0.011,9.421,7.645,17.056,17.067,17.067h17.067c9.421-0.011,17.056-7.645,17.067-17.067v-17.067
				C230.49,426.876,222.855,419.241,213.434,419.231z M196.367,453.364v-17.067h17.067l0.009,17.067H196.367z"/>
			<path style="fill:#51A1FF;" d="M281.701,376.564c0.011,9.421,7.645,17.056,17.067,17.067h17.067
				c9.421-0.011,17.056-7.645,17.067-17.067v-17.067c-0.011-9.421-7.645-17.056-17.067-17.067h-17.067
				c-9.421,0.011-17.056,7.645-17.067,17.067V376.564z M298.767,359.497h17.067l0.009,17.067h-17.075V359.497z"/>
			<path style="fill:#51A1FF;" d="M332.901,419.231c-9.421,0.011-17.056,7.645-17.067,17.067v17.067
				c0.011,9.421,7.645,17.056,17.067,17.067h17.067c9.421-0.011,17.056-7.645,17.067-17.067v-17.067
				c-0.011-9.421-7.645-17.056-17.067-17.067H332.901z M332.901,453.364v-17.067h17.067l0.009,17.067H332.901z"/>
			<path style="fill:#51A1FF;" d="M418.234,453.364c0.011,9.421,7.645,17.056,17.067,17.067h17.067
				c9.421-0.011,17.056-7.645,17.067-17.067v-17.067c-0.011-9.421-7.645-17.056-17.067-17.067h-17.067
				c-9.421,0.011-17.056,7.645-17.067,17.067V453.364z M435.301,436.297h17.067l0.009,17.067h-17.075V436.297z"/>
			<path style="fill:#51A1FF;" d="M358.501,240.031c2.263,0.001,4.434-0.898,6.035-2.499c1.6-1.6,2.499-3.771,2.499-6.035v-34.133
				c0-4.713-3.82-8.533-8.533-8.533s-8.533,3.821-8.533,8.533v34.133c-0.001,2.263,0.898,4.434,2.499,6.035
				C354.066,239.132,356.237,240.031,358.501,240.031z"/>
			<path style="fill:#51A1FF;" d="M349.967,385.097c0,4.713,3.82,8.533,8.533,8.533s8.533-3.821,8.533-8.533v-34.133
				c0-4.713-3.82-8.533-8.533-8.533s-8.533,3.821-8.533,8.533V385.097z"/>
			<path style="fill:#51A1FF;" d="M384.101,461.897c0,4.713,3.82,8.533,8.533,8.533s8.533-3.82,8.533-8.533v-34.133
				c0-4.713-3.82-8.533-8.533-8.533s-8.533,3.82-8.533,8.533V461.897z"/>
			<path style="fill:#51A1FF;" d="M384.101,385.097c0,4.713,3.82,8.533,8.533,8.533s8.533-3.821,8.533-8.533v-34.133
				c0-4.713-3.82-8.533-8.533-8.533s-8.533,3.821-8.533,8.533V385.097z"/>
			<path style="fill:#51A1FF;" d="M256.101,419.231c-2.263-0.001-4.434,0.898-6.035,2.499c-1.6,1.6-2.499,3.771-2.499,6.035v34.133
				c0,4.713,3.82,8.533,8.533,8.533c4.713,0,8.533-3.82,8.533-8.533v-34.133c0.001-2.263-0.898-4.434-2.499-6.035
				C260.535,420.129,258.364,419.23,256.101,419.231z"/>
			<path style="fill:#51A1FF;" d="M281.701,461.897c0,4.713,3.821,8.533,8.533,8.533s8.533-3.82,8.533-8.533v-34.133
				c0-4.713-3.82-8.533-8.533-8.533s-8.533,3.82-8.533,8.533V461.897z"/>
			<path style="fill:#51A1FF;" d="M435.301,265.631c-9.421,0.011-17.056,7.645-17.067,17.067v17.067
				c0.011,9.421,7.645,17.056,17.067,17.067h17.067c9.421-0.011,17.056-7.645,17.067-17.067v-17.067
				c-0.011-9.421-7.645-17.056-17.067-17.067H435.301z M452.367,299.764h-17.067v-17.067h17.067V299.764z"/>
			<path style="fill:#51A1FF;" d="M384.101,308.297c0,4.713,3.82,8.533,8.533,8.533s8.533-3.82,8.533-8.533v-34.133
				c0-4.713-3.82-8.533-8.533-8.533s-8.533,3.82-8.533,8.533V308.297z"/>
			<path style="fill:#51A1FF;" d="M349.967,308.297c0,4.713,3.82,8.533,8.533,8.533s8.533-3.82,8.533-8.533v-34.133
				c0-4.713-3.82-8.533-8.533-8.533s-8.533,3.82-8.533,8.533V308.297z"/>
			<path style="fill:#51A1FF;" d="M281.701,299.764c0.011,9.421,7.645,17.056,17.067,17.067h17.067
				c9.421-0.011,17.056-7.645,17.067-17.067v-17.067c-0.011-9.421-7.645-17.056-17.067-17.067h-17.067
				c-9.421,0.011-17.056,7.645-17.067,17.067V299.764z M298.767,282.697h17.067v17.067h-17.067V282.697z"/>
			<path style="fill:#51A1FF;" d="M145.167,299.764c0.011,9.421,7.645,17.056,17.067,17.067h17.067
				c9.421-0.011,17.056-7.645,17.067-17.067v-17.067c-0.011-9.421-7.645-17.056-17.067-17.067h-17.067
				c-9.421,0.011-17.056,7.645-17.067,17.067V299.764z M162.234,282.697h17.067v17.067h-17.067V282.697z"/>
			<path style="fill:#51A1FF;" d="M42.767,299.764c0.011,9.421,7.645,17.056,17.067,17.067h17.067
				c9.421-0.011,17.056-7.645,17.067-17.067v-17.067c-0.011-9.421-7.645-17.056-17.067-17.067H59.834
				c-9.421,0.011-17.056,7.645-17.067,17.067V299.764z M59.834,282.697h17.067v17.067H59.834V282.697z"/>
			<path style="fill:#51A1FF;" d="M128.101,308.297v-34.133c0-4.713-3.821-8.533-8.533-8.533c-4.713,0-8.533,3.82-8.533,8.533
				v34.133c0,4.713,3.821,8.533,8.533,8.533C124.28,316.831,128.101,313.01,128.101,308.297z"/>
			<path style="fill:#51A1FF;" d="M264.634,274.164c0-4.713-3.821-8.533-8.533-8.533c-4.713,0-8.533,3.82-8.533,8.533v34.133
				c0,4.713,3.82,8.533,8.533,8.533c4.713,0,8.533-3.82,8.533-8.533V274.164z"/>
			<path style="fill:#51A1FF;" d="M213.434,308.297c0,4.713,3.821,8.533,8.533,8.533s8.533-3.82,8.533-8.533v-34.133
				c0-4.713-3.821-8.533-8.533-8.533s-8.533,3.82-8.533,8.533V308.297z"/>
			<path style="fill:#51A1FF;" d="M435.301,385.097v-34.133c0-4.713-3.821-8.533-8.533-8.533s-8.533,3.821-8.533,8.533v34.133
				c0,4.713,3.82,8.533,8.533,8.533S435.301,389.81,435.301,385.097z"/>
			<path style="fill:#51A1FF;" d="M469.434,350.964c0-4.713-3.821-8.533-8.533-8.533s-8.533,3.821-8.533,8.533v34.133
				c0,4.713,3.82,8.533,8.533,8.533s8.533-3.821,8.533-8.533V350.964z"/>
			<path style="fill:#51A1FF;" d="M469.434,231.497v-34.133c0-4.713-3.821-8.533-8.533-8.533s-8.533,3.821-8.533,8.533v34.133
				c0,4.713,3.82,8.533,8.533,8.533S469.434,236.21,469.434,231.497z"/>
		</g>
	</g>
</g>
<g>
</g>
<g>
</g>
<g>
</g>
<g>
</g>
<g>
</g>
<g>
</g>
<g>
</g>
<g>
</g>
<g>
</g>
<g>
</g>
<g>
</g>
<g>
</g>
<g>
</g>
<g>
</g>
<g>
</g>
</svg>
